<svg width="107" height="52" viewBox="0 0 107 52" fill="none" xmlns="http://www.w3.org/2000/svg">
<g clip-path="url(#clip0_591_154)">
<path fill-rule="evenodd" clip-rule="evenodd" d="M65.8015 34.9671C59.6378 39.5049 50.7039 41.926 43.012 41.926C32.2267 41.926 22.5171 37.9416 15.1715 31.3148C14.5943 30.7936 15.1114 30.0835 15.804 30.4893C23.7314 35.0963 33.5333 37.8678 43.6584 37.8678C50.4869 37.8678 57.9988 36.4567 64.9058 33.5283C65.9493 33.0856 66.8219 34.2108 65.8015 34.9671Z" fill="white"/>
<path fill-rule="evenodd" clip-rule="evenodd" d="M68.364 32.0388C67.5791 31.0335 63.156 31.5638 61.1707 31.799C60.5659 31.8728 60.4736 31.347 61.0184 30.9689C64.5411 28.4925 70.3216 29.2073 70.9957 30.0373C71.6698 30.872 70.8203 36.6596 67.5099 39.4219C67.002 39.8462 66.5172 39.6202 66.7435 39.0576C67.4868 37.2037 69.1535 33.0487 68.364 32.0388Z" fill="white"/>
<path fill-rule="evenodd" clip-rule="evenodd" d="M61.3092 13.4864V11.0791C61.3092 10.7148 61.5862 10.4704 61.9186 10.4704H72.7086C73.0549 10.4704 73.3319 10.7194 73.3319 11.0791V13.1405C73.3273 13.4864 73.0364 13.9383 72.5193 14.6531L66.9281 22.6265C69.0057 22.5758 71.1988 22.8848 73.0826 23.9454C73.5073 24.1852 73.6227 24.5357 73.6551 24.8816V27.4503C73.6551 27.8007 73.2672 28.2112 72.8609 27.999C69.5413 26.2605 65.1321 26.0714 61.4615 28.0175C61.0876 28.2204 60.6951 27.8146 60.6951 27.4641V25.0246C60.6951 24.6326 60.6997 23.9639 61.0922 23.369L67.5698 14.0905H61.9325C61.5862 14.0905 61.3092 13.8461 61.3092 13.4864Z" fill="white"/>
<path fill-rule="evenodd" clip-rule="evenodd" d="M21.9493 28.5063H18.6666C18.3526 28.4832 18.1033 28.2481 18.0802 27.9483V11.1206C18.0802 10.784 18.3618 10.5165 18.7127 10.5165H21.7738C22.0924 10.5303 22.3463 10.7748 22.3694 11.0791V13.2789H22.4294C23.2282 11.1529 24.7287 10.1614 26.7509 10.1614C28.8055 10.1614 30.089 11.1529 31.0124 13.2789C31.8066 11.1529 33.6118 10.1614 35.5463 10.1614C36.9222 10.1614 38.4273 10.7287 39.3461 12.0015C40.385 13.4172 40.1726 15.474 40.1726 17.2771L40.168 27.8976C40.168 28.2342 39.8863 28.5063 39.5354 28.5063H36.2574C35.9295 28.4832 35.6664 28.2204 35.6664 27.8976V18.9788C35.6664 18.2686 35.731 16.4977 35.574 15.8245C35.3293 14.6946 34.5952 14.3764 33.6441 14.3764C32.85 14.3764 32.0189 14.9067 31.6819 15.7553C31.3449 16.6038 31.3772 18.0242 31.3772 18.9788V27.8976C31.3772 28.2342 31.0955 28.5063 30.7446 28.5063H27.4666C27.1342 28.4832 26.8756 28.2204 26.8756 27.8976L26.871 18.9788C26.871 17.1019 27.1803 14.3395 24.8487 14.3395C22.4894 14.3395 22.5818 17.0327 22.5818 18.9788V27.8976C22.5818 28.2342 22.3001 28.5063 21.9493 28.5063" fill="white"/>
<path fill-rule="evenodd" clip-rule="evenodd" d="M82.6213 10.1614C87.4923 10.1614 90.1286 14.3395 90.1286 19.6521C90.1286 24.7848 87.2153 28.8568 82.6213 28.8568C77.8381 28.8568 75.2341 24.6787 75.2341 19.4722C75.2341 14.2335 77.8704 10.1614 82.6213 10.1614ZM82.649 13.5971C80.2297 13.5971 80.0774 16.8897 80.0774 18.9419C80.0774 20.9986 80.045 25.3889 82.6213 25.3889C85.1653 25.3889 85.2854 21.8472 85.2854 19.689C85.2854 18.2686 85.2253 16.5715 84.7959 15.2249C84.4266 14.0536 83.6925 13.5971 82.649 13.5971Z" fill="white"/>
<path fill-rule="evenodd" clip-rule="evenodd" d="M96.4446 28.5063H93.1758C92.848 28.4832 92.5848 28.2204 92.5848 27.8976L92.5802 11.0653C92.6079 10.7563 92.8803 10.5165 93.2127 10.5165H96.2553C96.5416 10.5303 96.7771 10.724 96.8417 10.9869V13.5602H96.9017C97.8205 11.259 99.1086 10.1614 101.376 10.1614C102.848 10.1614 104.284 10.6918 105.208 12.1444C106.066 13.491 106.066 15.7553 106.066 17.3832V27.976C106.03 28.2711 105.757 28.5063 105.434 28.5063H102.142C101.842 28.4832 101.593 28.2619 101.56 27.976V18.8358C101.56 16.9958 101.773 14.3026 99.5057 14.3026C98.707 14.3026 97.9729 14.8376 97.6081 15.6492C97.1464 16.6776 97.0864 17.7014 97.0864 18.8358V27.8976C97.0818 28.2342 96.7955 28.5063 96.4446 28.5063" fill="white"/>
<path fill-rule="evenodd" clip-rule="evenodd" d="M52.7077 20.4683C52.7077 21.7457 52.74 22.811 52.0937 23.9454C51.5719 24.8678 50.7409 25.435 49.8221 25.435C48.5617 25.435 47.8229 24.4758 47.8229 23.06C47.8229 20.2654 50.33 19.7581 52.7077 19.7581V20.4683ZM56.0181 28.4602C55.8011 28.6539 55.4872 28.6677 55.2425 28.5386C54.1528 27.6347 53.9543 27.2151 53.3587 26.3527C51.5581 28.1881 50.2792 28.7369 47.9476 28.7369C45.182 28.7369 43.0351 27.0352 43.0351 23.6273C43.0351 20.9664 44.4756 19.154 46.5348 18.2686C48.3169 17.4846 50.8055 17.3463 52.7077 17.1295V16.7053C52.7077 15.9259 52.7677 15.0036 52.306 14.3303C51.909 13.7262 51.1426 13.4772 50.4639 13.4772C49.2126 13.4772 48.1 14.1182 47.8275 15.4463C47.7721 15.7414 47.5551 16.032 47.255 16.0458L44.0739 15.7045C43.8061 15.6446 43.506 15.4279 43.5845 15.0174C44.314 11.1621 47.8045 10 50.9256 10C52.523 10 54.6099 10.4243 55.8704 11.6325C57.4679 13.1221 57.3155 15.1097 57.3155 17.2725V22.3821C57.3155 23.9178 57.9526 24.5911 58.5528 25.4212C58.7606 25.7163 58.8068 26.0714 58.539 26.2927C57.8695 26.8507 56.6783 27.8884 56.0227 28.4694L56.0181 28.4602" fill="white"/>
<path fill-rule="evenodd" clip-rule="evenodd" d="M9.67263 20.4685C9.67263 21.7459 9.70494 22.8112 9.05857 23.9456C8.53684 24.868 7.7104 25.4352 6.787 25.4352C5.52655 25.4352 4.79245 24.476 4.79245 23.0602C4.79245 20.2656 7.29948 19.7583 9.67263 19.7583V20.4685ZM12.983 28.4604C12.766 28.6541 12.4521 28.6679 12.2074 28.5388C11.1177 27.6349 10.9238 27.2153 10.3236 26.3529C8.52299 28.1883 7.2487 28.7371 4.91249 28.7371C2.15152 28.7371 0 27.0354 0 23.6274C0 20.9666 1.44512 19.1542 3.49969 18.2688C5.28185 17.4848 7.77042 17.3465 9.67263 17.1297V16.7055C9.67263 15.9261 9.73265 15.0038 9.27556 14.3305C8.87388 13.7264 8.10746 13.4774 7.43338 13.4774C6.18217 13.4774 5.06485 14.1184 4.79245 15.4465C4.73705 15.7416 4.52005 16.0322 4.22456 16.046L1.03883 15.7047C0.771039 15.6448 0.475551 15.428 0.549423 15.0176C1.28353 11.1623 4.76936 10.0002 7.89046 10.0002C9.48794 10.0002 11.5748 10.4245 12.8353 11.6327C14.4328 13.1223 14.2804 15.1098 14.2804 17.2727V22.3823C14.2804 23.918 14.9175 24.5913 15.5178 25.4213C15.7301 25.7165 15.7763 26.0716 15.5085 26.2929C14.8391 26.8509 13.6479 27.8885 12.9922 28.4696L12.983 28.4604" fill="white"/>
</g>
<defs>
<clipPath id="clip0_591_154">
<rect width="106.066" height="31.926" fill="white" transform="translate(0 10)"/>
</clipPath>
</defs>
</svg>
