<svg width="83" height="48" viewBox="0 0 83 48" fill="none" xmlns="http://www.w3.org/2000/svg">
<g clip-path="url(#clip0_591_155)">
<path d="M65.7245 34.5759H82.0665V47.463H65.6278L61.5665 43.6727V38.3662L65.7245 34.5759Z" fill="white"/>
<path d="M14.7646 10.6021L15.0547 10.5074C15.2481 10.4126 15.5382 10.2231 15.8283 10.0336C16.1184 9.84405 16.4084 9.55978 16.6985 9.27551C16.9886 8.99123 17.182 8.6122 17.4721 8.04365C17.6655 7.56986 17.7622 7.00131 17.7622 6.43276C17.7622 5.01139 17.0853 3.68478 15.7316 2.64244C14.3778 1.6001 12.5405 1.03156 10.2198 1.03156H0.0664673V21.3098H10.8C13.5075 21.3098 19.2127 20.836 19.2127 15.5295C19.2127 11.4549 14.8613 10.6021 14.7646 10.6021ZM6.73864 5.76946H9.25279C9.73628 5.76946 10.1231 5.86422 10.5099 6.24325C10.8 6.52752 10.9934 6.90655 10.9934 7.28559C10.9934 7.66462 10.8 8.04365 10.5099 8.32793C10.1231 8.6122 9.73628 8.80172 9.25279 8.80172H6.73864V5.76946ZM11.3801 16.0981C10.9934 16.4771 10.5099 16.6666 9.92967 16.6666H6.73864V13.0658H9.92967C10.5099 13.0658 10.9934 13.2553 11.3801 13.6344C11.7669 14.0134 11.9603 14.3924 11.9603 14.961C11.9603 15.34 11.7669 15.7191 11.3801 16.0981Z" fill="white"/>
<path d="M20.083 33.0598L20.3731 32.965C20.5665 32.8703 20.8566 32.6807 21.1467 32.4912C21.4368 32.3017 21.7269 32.0174 22.017 31.7332C22.3071 31.4489 22.5005 31.0699 22.7905 30.5013C22.9839 30.0275 23.0806 29.459 23.0806 28.8904C23.0806 27.4691 22.4038 26.1424 21.05 25.1001C19.6962 24.0578 17.8589 23.4892 15.5382 23.4892H5.38489V43.7674H16.0217C18.7292 43.7674 24.4344 43.2936 24.4344 37.9872C24.5311 33.9126 20.1797 33.1545 20.083 33.0598ZM12.1538 28.2271H14.5712C15.0547 28.2271 15.4415 28.4166 15.8283 28.7009C16.1184 28.9852 16.3118 29.3642 16.3118 29.7432C16.3118 30.1223 16.1184 30.5013 15.8283 30.7856C15.5382 31.0699 15.1514 31.2594 14.5712 31.2594H12.1538V28.2271ZM16.6986 38.5557C16.3118 38.9348 15.8283 39.1243 15.2481 39.1243H12.1538V35.5235H15.2481C15.8283 35.5235 16.3118 35.713 16.6986 36.092C17.0854 36.4711 17.2788 36.8501 17.2788 37.4187C17.2788 37.7977 17.0854 38.1767 16.6986 38.5557Z" fill="white"/>
<path d="M36.3283 16.3824H26.3684V13.2553H34.491V8.6122H26.3684V5.95897H36.3283V1.03156H19.5995V21.3098H36.3283V16.3824Z" fill="white"/>
<path d="M53.4438 1.03156V5.95897H58.9556V21.3098H65.6278V5.95897H71.0429V1.03156H53.4438Z" fill="white"/>
<path d="M45.9014 16.0981C45.5146 16.3824 45.0311 16.5719 44.3542 16.5719C43.6773 16.5719 43.0004 16.3824 42.3236 16.0033C41.6467 15.6243 41.1632 15.34 40.8731 15.1505C40.7764 15.0557 40.583 14.961 40.4863 14.8662L36.5217 18.5618L36.8118 18.8461C37.0052 19.1303 37.3919 19.4146 37.8754 19.6989C38.3589 20.0779 38.9391 20.3622 39.616 20.7412C40.2929 21.1203 41.0665 21.4045 42.1302 21.5941C43.0971 21.8783 44.1608 21.9731 45.2245 21.9731C47.8353 21.9731 49.9627 21.3098 51.5099 19.9832C53.057 18.6566 53.8306 17.0457 53.8306 15.1505C53.8306 14.1082 53.6372 13.0658 53.1537 12.3078C52.6703 11.4549 52.1868 10.8864 51.5099 10.4126C50.833 10.0336 50.1561 9.65454 49.3825 9.27551C48.7056 8.99123 48.0287 8.70696 47.3519 8.6122C47.2552 8.6122 47.2552 8.6122 47.1585 8.6122C46.4816 8.42268 45.9014 8.23317 45.5146 7.94889C45.0311 7.66462 44.8377 7.4751 44.8377 7.09607C44.8377 6.71704 45.0311 6.43276 45.3212 6.14849C45.6113 5.86421 46.0948 5.76946 46.675 5.76946C48.0287 5.76946 48.899 6.33801 49.2858 6.8118L53.2504 3.11623L53.1537 3.02147C52.9603 2.83196 52.6703 2.54768 52.2835 2.26341C51.8967 1.97913 51.4132 1.69486 50.833 1.41059C50.2528 1.12631 49.5759 0.842037 48.6089 0.652521C47.642 0.557763 46.675 0.463005 45.708 0.463005C43.1938 0.463005 41.2599 1.12631 39.7127 2.35817C38.1655 3.68478 37.3919 5.20091 37.3919 6.90655C37.3919 7.85413 37.5853 8.70696 37.8754 9.37026C38.1655 10.1283 38.649 10.6969 39.1325 11.1707C39.616 11.6445 40.1962 12.0235 40.8731 12.3078C41.4533 12.592 41.9368 12.7816 42.517 12.9711C42.6136 12.9711 42.7103 13.0658 42.807 13.0658C43.4839 13.2553 44.0641 13.4449 44.5476 13.6344C45.0311 13.8239 45.5146 14.0134 45.8047 14.2029C46.0948 14.3924 46.2882 14.6767 46.2882 14.8662C46.4816 15.4348 46.2882 15.8138 45.9014 16.0981Z" fill="white"/>
<path d="M36.3283 35.5235C36.3283 36.8501 35.2646 37.9872 33.8141 37.9872C32.4604 37.9872 31.3 36.9449 31.3 35.5235V23.4892H24.6278V35.2392C24.6278 40.0719 28.5924 44.0517 33.6207 44.0517H34.0075C38.9391 44.0517 43.0004 40.1666 43.0004 35.2392V23.4892H36.3283V35.5235Z" fill="white"/>
<path d="M54.4108 30.4066L50.0594 23.4892H43.3872L51.1231 36.5658V43.7674H57.7952V36.5658L65.5311 23.4892H58.8589L54.4108 30.4066Z" fill="white"/>
<path d="M64.8542 41.0195C64.8542 41.4933 64.4674 41.7775 64.0806 41.7775C63.6938 41.7775 63.307 41.3985 63.307 41.0195C63.307 40.5457 63.6938 40.2614 64.0806 40.2614C64.4674 40.2614 64.8542 40.5457 64.8542 41.0195Z" fill="white"/>
<path d="M65.7245 29.3642H65.241V29.1747H66.4013V29.3642H65.9179V30.7856H65.7245V29.3642ZM66.6914 29.1747H66.9815L67.465 30.4066L67.9485 29.1747H68.2386V30.6908H68.0452V29.3642L67.465 30.6908H67.3683L66.7881 29.3642V30.6908H66.5947V29.1747H66.6914Z" fill="white"/>
</g>
<defs>
<clipPath id="clip0_591_155">
<rect width="82" height="47" fill="white" transform="translate(0.0664673 0.463005)"/>
</clipPath>
</defs>
</svg>
