<svg width="151" height="44" viewBox="0 0 151 44" fill="none" xmlns="http://www.w3.org/2000/svg">
<g clip-path="url(#clip0_591_167)">
<path d="M51.859 24.2755C50.5818 23.5673 49.9096 22.9939 49.9096 22.1845C49.9096 21.139 50.8171 20.4982 52.2623 20.4982C53.9428 20.4982 55.4216 21.2065 55.4216 21.2065L56.598 17.5979C56.598 17.5979 55.5225 16.7547 52.3295 16.7547C47.8931 16.7547 44.801 19.3179 44.801 22.8928C44.801 24.9163 46.2462 26.4677 48.1619 27.5806C49.708 28.4575 50.2457 29.0982 50.2457 30.0088C50.2457 30.9869 49.4727 31.7626 48.0275 31.7626C45.8765 31.7626 43.8599 30.6496 43.8599 30.6496L42.6163 34.2582C42.6163 34.2582 44.4985 35.5061 47.6242 35.5061C52.1951 35.5061 55.4552 33.2465 55.4552 29.1994C55.5225 26.9735 53.842 25.4222 51.859 24.2755Z" fill="white"/>
<path d="M70.0754 16.6873C67.8236 16.6873 66.0759 17.7665 64.6979 19.3853L64.6307 19.3516L66.58 9.09903H61.4714L56.5307 35.1688H61.6058L63.2863 26.2653C63.9585 22.8928 65.6726 20.8355 67.2858 20.8355C68.4286 20.8355 68.8655 21.6112 68.8655 22.7241C68.8655 23.4324 68.7983 24.2755 68.6302 24.9837L66.7145 35.2026H71.7895L73.7725 24.6802C74.0078 23.5673 74.1422 22.252 74.1422 21.3414C74.2094 18.4073 72.7306 16.6873 70.0754 16.6873Z" fill="white"/>
<path d="M85.7039 16.6873C79.587 16.6873 75.5202 22.2182 75.5202 28.39C75.5202 32.3359 77.9401 35.5398 82.511 35.5398C88.5271 35.5398 92.5603 30.1437 92.5603 23.8371C92.5939 20.161 90.4765 16.6873 85.7039 16.6873ZM83.2168 31.5939C81.4691 31.5939 80.7633 30.11 80.7633 28.2551C80.7633 25.321 82.2757 20.5657 85.0317 20.5657C86.8467 20.5657 87.418 22.1171 87.418 23.6347C87.418 26.8049 85.9056 31.5939 83.2168 31.5939Z" fill="white"/>
<path d="M105.601 16.6873C102.173 16.6873 100.223 19.7226 100.223 19.7226H100.156L100.459 16.9908H95.9549C95.7196 18.8457 95.3163 21.6449 94.913 23.7696L91.384 42.3861H96.459L97.8706 34.8316H97.9715C97.9715 34.8316 99.0134 35.5061 100.963 35.5061C106.945 35.5061 110.844 29.368 110.844 23.1626C110.844 19.7563 109.332 16.6873 105.601 16.6873ZM100.761 31.6951C99.4503 31.6951 98.6773 30.9531 98.6773 30.9531L99.5175 26.1979C100.122 23.0277 101.769 20.9029 103.517 20.9029C105.063 20.9029 105.534 22.3531 105.534 23.7022C105.534 26.9735 103.584 31.6951 100.761 31.6951Z" fill="white"/>
<path d="M118.104 9.36883C116.49 9.36883 115.18 10.6504 115.18 12.3367C115.18 13.8543 116.121 14.8998 117.566 14.8998H117.633C119.213 14.8998 120.591 13.8206 120.624 11.932C120.658 10.4143 119.65 9.36883 118.104 9.36883Z" fill="white"/>
<path d="M110.978 35.1688H116.087L119.549 17.092H114.407L110.978 35.1688Z" fill="white"/>
<path d="M132.455 17.0582H128.926L129.094 16.2151C129.397 14.4614 130.405 12.91 132.119 12.91C133.026 12.91 133.732 13.1798 133.732 13.1798L134.74 9.2002C134.74 9.2002 133.867 8.76177 131.984 8.76177C130.17 8.76177 128.388 9.26765 127.01 10.448C125.263 11.932 124.456 14.0567 124.053 16.2151L123.918 17.0582H121.565L120.826 20.9029H123.179L120.49 35.1688H125.565L128.254 20.9029H131.749L132.455 17.0582Z" fill="white"/>
<path d="M144.689 17.092C144.689 17.092 141.496 25.1186 140.084 29.503H140.017C139.916 28.0865 138.774 17.092 138.774 17.092H133.43L136.488 33.6849C136.555 34.0559 136.522 34.292 136.387 34.528C135.782 35.6747 134.808 36.7877 133.631 37.5971C132.69 38.3053 131.615 38.7437 130.775 39.0473L132.186 43.3641C133.228 43.128 135.345 42.2849 137.16 40.5986C139.479 38.4065 141.63 35.0677 143.815 30.481L150.033 17.092H144.689Z" fill="white"/>
<path d="M25.1057 5.3555C25.1057 5.3555 24.6351 5.4904 23.8621 5.72648C23.7277 5.28805 23.526 4.78216 23.2571 4.24256C22.3833 2.55628 21.0725 1.64569 19.5265 1.64569C19.4256 1.64569 19.3248 1.64569 19.1904 1.67942C19.1568 1.61197 19.0895 1.57824 19.0559 1.51079C18.3837 0.768831 17.5099 0.431576 16.468 0.465301C14.4514 0.532752 12.4348 1.98295 10.8216 4.57981C9.67884 6.40099 8.80499 8.69432 8.56972 10.4818C6.25065 11.19 4.63738 11.6959 4.60377 11.7296C3.42744 12.1006 3.39383 12.1343 3.25939 13.2473C3.15856 14.0904 0.0664673 37.8331 0.0664673 37.8331L25.4754 42.2512V5.32177C25.2737 5.32177 25.1729 5.3555 25.1057 5.3555ZM19.224 7.17667C17.8796 7.58138 16.4008 8.05354 14.9556 8.49197C15.3589 6.90687 16.1655 5.32177 17.1066 4.27628C17.4763 3.9053 17.9804 3.46687 18.5518 3.19707C19.1232 4.41118 19.2576 6.06373 19.224 7.17667ZM16.468 1.84805C16.9385 1.84805 17.3418 1.94922 17.6779 2.15158C17.1402 2.42138 16.6024 2.85981 16.0983 3.36569C14.8211 4.74844 13.8464 6.90687 13.4431 8.96412C12.2332 9.3351 11.0232 9.70609 9.9141 10.0433C10.6535 6.80569 13.3759 1.9155 16.468 1.84805ZM12.5693 20.3971C12.7037 22.5555 18.3837 23.0277 18.7198 28.1202C18.9551 32.1335 16.6024 34.8653 13.2079 35.0677C9.10747 35.3375 6.85562 32.9092 6.85562 32.9092L7.72948 29.1994C7.72948 29.1994 9.98132 30.9194 11.7962 30.7845C12.9726 30.7171 13.4095 29.739 13.3759 29.0645C13.2079 26.2316 8.56972 26.4002 8.26723 21.7461C7.99835 17.8339 10.5527 13.888 16.1991 13.5171C18.3837 13.3822 19.4929 13.9218 19.4929 13.9218L18.2157 18.7782C18.2157 18.7782 16.7705 18.1037 15.0564 18.2386C12.5693 18.4073 12.5357 19.9924 12.5693 20.3971ZM20.5684 6.77197C20.5684 5.7602 20.4339 4.31001 19.9634 3.09589C21.5094 3.39942 22.2489 5.11942 22.585 6.16491C21.98 6.33354 21.3078 6.53589 20.5684 6.77197Z" fill="white"/>
<path d="M26.2484 42.1837L36.8019 39.5531C36.8019 39.5531 32.2645 8.76177 32.2309 8.55942C32.1973 8.35707 32.0293 8.22216 31.8612 8.22216C31.6932 8.22216 28.7355 8.15471 28.7355 8.15471C28.7355 8.15471 26.9206 6.40099 26.2484 5.72648V42.1837Z" fill="white"/>
</g>
<defs>
<clipPath id="clip0_591_167">
<rect width="150" height="43" fill="white" transform="translate(0.0664673 0.463005)"/>
</clipPath>
</defs>
</svg>
