<svg width="182" height="45" viewBox="0 0 182 45" fill="none" xmlns="http://www.w3.org/2000/svg">
<g clip-path="url(#clip0_591_181)">
<path fill-rule="evenodd" clip-rule="evenodd" d="M100.635 28.9369C100.635 29.2815 100.578 29.6836 100.52 29.9708C100.005 31.4643 98.6325 32.4408 97.0308 32.4408C95.6006 32.4408 94.5137 31.6366 94.5137 29.9134C94.5137 27.2711 97.374 26.5818 100.692 26.5818V28.9369H100.635ZM105.783 24.3416C105.783 20.0335 103.953 16.1849 97.7172 16.1849C94.5137 16.1849 91.9394 17.104 90.5665 17.9082L91.5962 21.4121C93.198 20.493 94.9713 19.9761 96.8019 19.9186C100.005 19.9186 100.52 21.6993 100.52 22.8481V23.1353C93.5984 23.1353 89.2507 25.5479 89.2507 30.4304C89.2507 33.4173 91.4818 36.2319 95.3718 36.2319C97.7172 36.2319 99.7194 35.3129 100.921 33.762H101.035C101.035 33.762 101.836 37.0936 106.184 35.8298C105.955 34.4513 105.84 32.9578 105.84 31.2345L105.783 24.3416ZM0.0664673 10.2685L5.32943 31.8664C6.18752 35.3703 7.67487 36.6915 12.0225 35.8298L14.8256 24.3416C15.5121 21.4695 16.027 19.4591 16.4846 16.5296H16.5418C16.8851 19.4591 17.3427 21.4695 17.9148 24.3416L19.6309 32.3259C20.2602 35.0831 21.862 36.8063 26.1524 35.8298L32.8455 10.3259H27.411L25.1227 21.3547C24.4935 24.5714 23.9214 27.0988 23.521 30.0283C23.1205 27.0988 22.6057 24.6862 21.9764 21.5844L19.6309 10.3259H13.9675L11.3933 21.2972C10.7068 24.6288 10.0203 27.3285 9.56268 30.1432H9.50547C9.04782 27.5009 8.47576 24.1118 7.84649 20.8951L5.78707 10.2685H0.0664673ZM42.7994 28.9369C42.7994 29.2815 42.7994 29.6836 42.685 29.9708C42.1701 31.4643 40.7972 32.4408 39.1954 32.4408C37.7653 32.4408 36.6784 31.6366 36.6784 29.9134C36.6784 27.2711 39.5387 26.5818 42.8566 26.5818V28.9369H42.7994ZM48.0052 24.3416C48.0052 20.0335 46.1746 16.1849 39.9391 16.1849C36.7356 16.1849 34.1613 17.104 32.7883 17.9082L33.8181 21.4121C35.4198 20.493 37.1932 19.9761 39.0238 19.9186C42.2273 19.9186 42.7422 21.6993 42.7422 22.8481V23.1353C35.8203 23.1353 31.4726 25.5479 31.4726 30.4304C31.4726 33.4173 33.7036 36.2319 37.5936 36.2319C39.9391 36.2319 41.9413 35.3129 43.1426 33.762H43.257C43.257 33.762 44.0579 37.0936 48.4056 35.8298C48.1768 34.4513 48.0624 32.9578 48.0624 31.2345L48.0052 24.3416ZM55.9568 30.3729V10.2685H50.8083V35.7724H55.9568V30.3729ZM121.629 10.3259V29.1092C121.629 31.6941 122.087 33.5322 123.174 34.6236C124.089 35.6001 125.577 36.2319 127.35 36.2319C128.895 36.2319 130.382 35.9447 131.068 35.6575L131.011 31.5792C130.496 31.7515 129.867 31.809 129.066 31.809C127.293 31.809 126.721 30.7176 126.721 28.3625V21.2398H131.24V16.3573H126.721V10.2685L121.629 10.3259ZM108.3 16.6445V35.8298H113.621V26.0074C113.621 25.4904 113.678 25.0309 113.735 24.5714C114.135 22.5035 115.68 21.1823 117.968 21.1823C118.597 21.1823 118.998 21.2398 119.513 21.2972V16.2424C119.112 16.1849 118.712 16.1275 118.369 16.1275C116.366 16.1275 114.135 17.3912 113.163 20.2058H113.048V16.587L108.3 16.6445ZM58.9887 16.6445V35.8298H64.1373V24.5714C64.1373 24.0544 64.1945 23.48 64.3661 23.0204C64.7665 21.8716 65.8534 20.5505 67.5124 20.5505C69.6291 20.5505 70.6016 22.3312 70.6016 24.8586V35.7724H75.8073V24.399C75.8073 23.8821 75.8645 23.2502 76.0361 22.8481C76.4366 21.4695 77.7523 20.493 79.1825 20.493C81.2991 20.493 82.3288 22.2163 82.3288 25.2607V35.7724H87.5345V24.5139C87.5345 18.5975 84.5026 16.1849 81.1275 16.1849C79.5829 16.1849 78.4388 16.587 77.3519 17.2189C76.4366 17.7933 75.6357 18.5975 74.9492 19.6314H74.892C74.0339 17.5061 71.9173 16.1275 69.6291 16.1849C67.3408 16.0701 65.167 17.2189 64.0801 19.2293H64.0229V16.6445H58.9887Z" fill="white"/>
<path fill-rule="evenodd" clip-rule="evenodd" d="M159.099 15.7828C160.129 15.7828 160.987 15.2084 161.102 14.5766L162.074 3.03089C162.074 1.88207 160.758 0.963005 159.099 0.963005C157.44 0.963005 156.125 1.88207 156.125 3.03089L157.154 14.5766C157.212 15.2659 158.07 15.7828 159.099 15.7828ZM152.864 19.4016C153.379 18.4826 153.322 17.5061 152.807 17.0466L143.368 10.4408C142.395 9.8664 140.908 10.5557 140.107 11.9917C139.249 13.4278 139.42 15.0936 140.393 15.6105L150.862 20.493C151.491 20.7228 152.406 20.2633 152.864 19.4016ZM165.278 19.3442C165.792 20.2633 166.651 20.7228 167.337 20.4356L177.749 15.5531C178.721 14.9787 178.893 13.3703 178.035 11.9343C177.176 10.4983 175.746 9.80896 174.774 10.3834L165.335 17.0466C164.82 17.5061 164.763 18.4826 165.278 19.3442ZM159.099 30.1432C160.129 30.1432 160.987 30.7176 161.102 31.3494L162.074 42.8951C162.074 44.0439 160.758 44.963 159.099 44.963C157.44 44.963 156.125 44.0439 156.125 42.8951L157.154 31.3494C157.212 30.6601 158.07 30.1432 159.099 30.1432ZM165.278 26.5818C165.792 25.6627 166.651 25.2032 167.337 25.433L177.749 30.3155C178.721 30.8899 178.893 32.4983 178.035 33.9343C177.176 35.3703 175.746 36.0596 174.774 35.4852L165.335 28.8795C164.82 28.4774 164.763 27.4434 165.278 26.5818ZM152.864 26.5818C153.379 27.4434 153.322 28.4774 152.807 28.9369L143.368 35.5426C142.395 36.1171 140.908 35.4278 140.107 33.9917C139.249 32.5557 139.42 30.9473 140.393 30.3729L150.862 25.4904C151.491 25.2032 152.406 25.6627 152.864 26.5818ZM179.98 34.5087H180.094C180.208 34.5087 180.323 34.4513 180.323 34.3938C180.323 34.2789 180.266 34.2789 180.151 34.2789H180.037V34.5087H179.98ZM179.98 35.0257H179.751V34.1066H180.094C180.266 34.1066 180.323 34.1066 180.437 34.164C180.494 34.2215 180.552 34.2789 180.552 34.3364C180.552 34.4513 180.494 34.5087 180.38 34.5661C180.494 34.6236 180.552 34.681 180.552 34.7959C180.552 34.9682 180.609 34.9682 180.609 35.0257H180.38C180.323 34.9682 180.323 34.9108 180.323 34.7959C180.323 34.681 180.266 34.681 180.151 34.681H180.037L179.98 35.0257ZM180.094 33.8194C179.694 33.8194 179.407 34.164 179.407 34.5661C179.407 34.9682 179.694 35.3129 180.094 35.3129C180.494 35.3129 180.78 34.9682 180.78 34.5661C180.838 34.164 180.494 33.8194 180.094 33.8194ZM180.094 33.6471C180.609 33.6471 181.009 34.0492 181.009 34.5661C181.009 35.0831 180.609 35.4852 180.094 35.4852C179.579 35.4852 179.121 35.0831 179.121 34.5661C179.179 34.0492 179.579 33.6471 180.094 33.6471Z" fill="white"/>
</g>
<defs>
<clipPath id="clip0_591_181">
<rect width="181" height="44" fill="white" transform="translate(0.0664673 0.963005)"/>
</clipPath>
</defs>
</svg>
